<?xml version="1.0" encoding="utf-8"?>
<!-- Generator: Adobe Illustrator 19.0.0, SVG Export Plug-In . SVG Version: 6.00 Build 0)  -->
<svg version="1.1" id="Layer_1" xmlns="http://www.w3.org/2000/svg" xmlns:xlink="http://www.w3.org/1999/xlink" x="0px" y="0px"
	 viewBox="0 0 212.9 618.4" style="enable-background:new 0 0 212.9 618.4;" xml:space="preserve">
<style type="text/css">
	.st0{fill:#DEE7F1;}
	.st1{fill:#387EB9;}
	.st2{font-family:'HelveticaNeueLTCom-Lt';}
	.st3{font-size:12px;}
	.st4{fill:#4EAF49;}
	.st5{font-family:'Georgia-Bold';}
	.st6{font-size:16px;}
	.st7{fill:#EE83B5;}
</style>
<rect id="XMLID_15_" x="66.7" y="62.5" class="st0" width="8" height="546"/>
<rect id="XMLID_14_" x="66.7" y="62.5" class="st1" width="8" height="8"/>
<text id="XMLID_13_" transform="matrix(1 0 0 1 85.51 70.4762)" class="st2 st3">President’s Entry</text>
<text id="XMLID_12_" transform="matrix(1 0 0 1 32.3221 70.4762)" class="st2 st3">2009</text>
<text id="XMLID_11_" transform="matrix(1 0 0 1 32.3221 96.3097)" class="st2 st3">2010</text>
<rect id="XMLID_10_" x="66.7" y="88.3" class="st4" width="8" height="8"/>
<text id="XMLID_9_" transform="matrix(1 0 0 1 32.3221 141.1429)" class="st2 st3">2011</text>
<text id="XMLID_8_" transform="matrix(1 0 0 1 85.51 97.4762)" class="st2 st3">GSAT Scholarship</text>
<text id="XMLID_7_" transform="matrix(1 0 0 1 30.9459 22.4762)"><tspan x="0" y="0" class="st5 st6">Awards &amp;</tspan><tspan x="-10.4" y="19.2" class="st5 st6">Distinctions</tspan></text>
<rect id="XMLID_26_" x="66.7" y="134.5" class="st1" width="8" height="8"/>
<text id="XMLID_25_" transform="matrix(1 0 0 1 85.51 143.6427)"><tspan x="0" y="0" class="st2 st3">Dean of Science</tspan><tspan x="0" y="14.4" class="st2 st3">Scholarship</tspan></text>
<rect id="XMLID_30_" x="66.7" y="166.1" class="st4" width="8" height="8"/>
<text id="XMLID_29_" transform="matrix(1 0 0 1 85.51 175.3095)" class="st2 st3">BCCGN Award</text>
<rect id="XMLID_33_" x="66.7" y="183.5" class="st1" width="8" height="8"/>
<text id="XMLID_32_" transform="matrix(1 0 0 1 85.51 192.6427)" class="st2 st3">Trek Excellence</text>
<rect id="XMLID_36_" x="66.7" y="211.5" class="st1" width="8" height="8"/>
<text id="XMLID_35_" transform="matrix(1 0 0 1 85.51 220.6429)"><tspan x="0" y="0" class="st2 st3">Faculty of Science</tspan><tspan x="0" y="14.4" class="st2 st3">Achievement Award</tspan></text>
<rect id="XMLID_39_" x="66.7" y="244.6" class="st4" width="8" height="8"/>
<text id="XMLID_38_" transform="matrix(1 0 0 1 85.51 253.8095)" class="st2 st3">CFRI Scholarship</text>
<rect id="XMLID_42_" x="66.7" y="277.1" class="st4" width="8" height="8"/>
<text id="XMLID_41_" transform="matrix(1 0 0 1 85.51 286.3094)" class="st2 st3">UBC SUS Grant</text>
<rect id="XMLID_46_" x="66.7" y="296.5" class="st1" width="8" height="8"/>
<text id="XMLID_45_" transform="matrix(1 0 0 1 85.51 305.6429)"><tspan x="0" y="0" class="st2 st3">Science Student</tspan><tspan x="0" y="14.4" class="st2 st3">Recognition Award</tspan></text>
<rect id="XMLID_49_" x="66.7" y="330.8" class="st4" width="8" height="8"/>
<text id="XMLID_48_" transform="matrix(1 0 0 1 85.51 339.976)" class="st2 st3">ISMRM Travel Award</text>
<rect id="XMLID_52_" x="66.7" y="350.3" class="st4" width="8" height="8"/>
<text id="XMLID_51_" transform="matrix(1 0 0 1 85.51 359.4762)"><tspan x="0" y="0" class="st2 st3">Dean of Science</tspan><tspan x="0" y="14.4" class="st2 st3">Research Award</tspan></text>
<rect id="XMLID_55_" x="66.7" y="386" class="st1" width="8" height="8"/>
<text id="XMLID_54_" transform="matrix(1 0 0 1 85.51 395.1429)" class="st2 st3">Physiology Prize</text>
<rect id="XMLID_58_" x="66.7" y="408.1" class="st7" width="8" height="8"/>
<text id="XMLID_57_" transform="matrix(1 0 0 1 85.51 417.3095)"><tspan x="0" y="0" class="st2 st3">Commencement</tspan><tspan x="0" y="14.4" class="st2 st3">Speaker</tspan></text>
<rect id="XMLID_61_" x="66.7" y="105.5" class="st1" width="8" height="8"/>
<text id="XMLID_60_" transform="matrix(1 0 0 1 85.51 113.4764)" class="st2 st3">Trek Excellence</text>
<rect id="XMLID_64_" x="66.7" y="444.2" class="st4" width="8" height="8"/>
<text id="XMLID_63_" transform="matrix(1 0 0 1 85.51 453.3929)" class="st2 st3">UBC 4YF</text>
<text id="XMLID_27_" transform="matrix(1 0 0 1 32.3221 218.643)" class="st2 st3">2012</text>
<text id="XMLID_28_" transform="matrix(1 0 0 1 32.3221 285.1428)" class="st2 st3">2013</text>
<rect id="XMLID_34_" x="66.7" y="475.7" class="st1" width="8" height="8"/>
<text id="XMLID_31_" transform="matrix(1 0 0 1 85.51 484.8929)" class="st2 st3">Best of SLC</text>
<rect id="XMLID_40_" x="66.7" y="497.7" class="st4" width="8" height="8"/>
<text id="XMLID_37_" transform="matrix(1 0 0 1 85.51 506.8929)"><tspan x="0" y="0" class="st2 st3">FoM Graduate</tspan><tspan x="0" y="14.4" class="st2 st3">Scholarship</tspan></text>
<rect id="XMLID_47_" x="66.7" y="550.7" class="st4" width="8" height="8"/>
<text id="XMLID_43_" transform="matrix(1 0 0 1 85.51 559.8929)" class="st2 st3">CIHR - CGS-M</text>
<text id="XMLID_50_" transform="matrix(1 0 0 1 32.3221 482.6428)" class="st2 st3">2014</text>
<rect id="XMLID_56_" x="66.7" y="530.7" class="st1" width="8" height="8"/>
<text id="XMLID_53_" transform="matrix(1 0 0 1 85.51 539.8929)" class="st2 st3">UBC Alumni Award</text>
</svg>
