<?xml version="1.0" encoding="UTF-8" standalone="no"?>
<svg
   xmlns:dc="http://purl.org/dc/elements/1.1/"
   xmlns:cc="http://creativecommons.org/ns#"
   xmlns:rdf="http://www.w3.org/1999/02/22-rdf-syntax-ns#"
   xmlns:svg="http://www.w3.org/2000/svg"
   xmlns="http://www.w3.org/2000/svg"
   xmlns:sodipodi="http://sodipodi.sourceforge.net/DTD/sodipodi-0.dtd"
   xmlns:inkscape="http://www.inkscape.org/namespaces/inkscape"
   width="917px"
   height="917px"
   viewBox="0 0 917 917"
   version="1.1"
   id="svg15"
   sodipodi:docname="link_icon.svg"
   inkscape:version="0.92.4 (5da689c313, 2019-01-14)">
  <metadata
     id="metadata21">
    <rdf:RDF>
      <cc:Work
         rdf:about="">
        <dc:format>image/svg+xml</dc:format>
        <dc:type
           rdf:resource="http://purl.org/dc/dcmitype/StillImage" />
      </cc:Work>
    </rdf:RDF>
  </metadata>
  <defs
     id="defs19" />
  <sodipodi:namedview
     pagecolor="#ffffff"
     bordercolor="#666666"
     borderopacity="1"
     objecttolerance="10"
     gridtolerance="10"
     guidetolerance="10"
     inkscape:pageopacity="0"
     inkscape:pageshadow="2"
     inkscape:window-width="768"
     inkscape:window-height="641"
     id="namedview17"
     showgrid="false"
     inkscape:zoom="0.25736096"
     inkscape:cx="458.5"
     inkscape:cy="458.5"
     inkscape:window-x="0"
     inkscape:window-y="0"
     inkscape:window-maximized="0"
     inkscape:current-layer="svg15" />
  <!-- Generator: Sketch 54 (76480) - https://sketchapp.com -->
  <title
     id="title2">noun_link_465255</title>
  <desc
     id="desc4">Created with Sketch.</desc>
  <g
     id="Page-1"
     stroke="none"
     stroke-width="1"
     fill="none"
     fill-rule="evenodd"
     style="fill:#999999">
    <g
       id="noun_link_465255"
       transform="translate(-3.000000, 0.000000)"
       fill="#000000"
       fill-rule="nonzero"
       style="fill:#999999">
      <path
         d="M829.404,497.164 C829.404,542.081 829.404,586.997 829.404,631.914 C829.404,661.912 829.404,691.91 829.404,721.907 C829.404,737.874 830.371,754.296 828.718,770.214 C828.617,771.127 828.505,772.039 828.383,772.95 C828.916,769.097 829.449,765.245 829.983,761.392 C828.597,771.233 826.008,780.772 822.218,789.958 C823.697,786.419 825.178,782.88 826.657,779.34 C822.847,788.274 817.999,796.629 812.14,804.375 C814.466,801.323 816.791,798.272 819.117,795.221 C813.211,802.847 806.463,809.672 798.906,815.666 C801.975,813.277 805.046,810.89 808.115,808.502 C800.09,814.718 791.382,819.839 782.044,823.821 C785.757,822.271 789.47,820.721 793.183,819.172 C783.995,822.963 774.457,825.551 764.616,826.938 C768.607,826.423 772.597,825.909 776.588,825.394 C766.081,826.744 755.451,826.415 744.881,826.415 C727.618,826.415 710.357,826.415 693.095,826.415 C636.102,826.415 579.11,826.415 522.117,826.415 C457.097,826.415 392.078,826.415 327.059,826.415 C280.33,826.415 233.601,826.415 186.873,826.415 C173.501,826.415 159.772,827.102 146.485,825.394 C150.338,825.927 154.19,826.46 158.043,826.994 C148.201,825.608 138.663,823.019 129.476,819.229 C133.016,820.708 136.555,822.189 140.094,823.668 C131.161,819.858 122.805,815.01 115.06,809.151 C118.111,811.476 121.163,813.801 124.214,816.127 C116.589,810.221 109.763,803.474 103.769,795.916 C106.157,798.986 108.545,802.056 110.933,805.126 C104.717,797.1 99.596,788.393 95.614,779.055 C97.164,782.768 98.713,786.481 100.263,790.194 C96.472,781.006 93.884,771.468 92.498,761.627 C93.013,765.617 93.527,769.608 94.041,773.599 C92.691,763.092 93.021,752.462 93.021,741.891 C93.021,724.629 93.021,707.368 93.021,690.106 C93.021,633.113 93.021,576.121 93.021,519.128 C93.021,454.108 93.021,389.089 93.021,324.069 C93.021,277.34 93.021,230.611 93.021,183.883 C93.021,170.511 92.334,156.782 94.041,143.495 C93.508,147.348 92.975,151.2 92.441,155.053 C93.827,145.211 96.415,135.673 100.206,126.486 C98.726,130.026 97.247,133.565 95.767,137.104 C99.577,128.171 104.426,119.815 110.283,112.07 C107.958,115.121 105.633,118.173 103.307,121.224 C109.213,113.599 115.961,106.773 123.518,100.779 C120.448,103.167 117.378,105.555 114.309,107.943 C122.335,101.727 131.042,96.606 140.38,92.624 C136.667,94.174 132.954,95.723 129.241,97.273 C138.429,93.482 147.967,90.894 157.808,89.508 C153.818,90.023 149.828,90.537 145.837,91.051 C162.172,88.952 179.204,90.031 195.626,90.031 C225.477,90.031 255.329,90.031 285.18,90.031 C329.86,90.031 374.54,90.031 419.221,90.031 C443.736,90.031 464.392,69.981 464.555,45.345 C464.717,20.953 444.386,0.011 419.869,0.011 C374.857,0.011 329.844,0.011 284.831,0.011 C255.078,0.011 225.325,0.011 195.572,0.011 C174.952,0.011 155.016,-0.312 134.514,2.574 C105.138,6.711 78.985,21.236 56.475,39.95 C34.389,58.311 19.079,84.493 10.132,111.479 C3.937,130.16 3,149.83 3,169.318 C3,209.596 3,249.875 3,290.152 C3,353.721 3,417.291 3,480.86 C3,541.402 3,601.945 3,662.488 C3,693.686 3,724.885 3,756.084 C3,800.049 20.575,843.214 52.884,873.371 C82.974,901.458 122.58,916.434 163.616,916.434 C196.286,916.434 228.956,916.434 261.627,916.434 C322.72,916.434 383.813,916.434 444.906,916.434 C508.105,916.434 571.303,916.434 634.501,916.434 C673.487,916.434 712.474,916.434 751.46,916.434 C773.537,916.434 795.868,914.609 816.477,906.106 C824.746,902.695 832.888,899.418 840.641,894.977 C848.582,890.428 855.75,884.642 862.897,878.974 C874.32,869.913 883.012,858.978 891.655,847.273 C909.008,823.771 917.277,794.142 919.211,765.333 C920.227,750.205 919.424,734.8 919.424,719.658 C919.424,689.294 919.424,658.929 919.424,628.566 C919.424,584.981 919.424,541.397 919.424,497.812 C919.424,473.297 899.374,452.641 874.738,452.478 C850.346,452.316 829.404,472.647 829.404,497.164 L829.404,497.164 Z"
         id="Path"
         style="fill:#999999" />
      <path
         d="M585.373,90.031 C627.85,90.07 670.326,90.109 712.803,90.148 C764.886,90.196 816.969,90.244 869.052,90.292 C870.731,90.294 872.41,90.295 874.09,90.297 C898.605,90.319 919.261,70.23 919.424,45.611 C919.586,21.202 899.255,0.299 874.738,0.277 C832.261,0.238 789.785,0.199 747.308,0.16 C695.225,0.112 643.142,0.064 591.059,0.016 C589.38,0.014 587.701,0.013 586.021,0.011 C561.506,-0.011 540.85,20.078 540.687,44.697 C540.525,69.105 560.856,90.009 585.373,90.031 L585.373,90.031 Z"
         id="path7"
         style="fill:#999999" />
      <path
         d="M919.157,334.064 C919.197,291.587 919.236,249.111 919.275,206.634 C919.323,154.551 919.371,102.467 919.42,50.384 C919.421,48.704 919.423,47.025 919.424,45.345 C919.447,20.83 899.358,0.174 874.738,0.011 C850.329,-0.151 829.426,20.181 829.404,44.697 C829.364,87.174 829.325,129.65 829.286,172.127 C829.238,224.21 829.19,276.294 829.141,328.377 C829.14,330.057 829.138,331.736 829.137,333.416 C829.114,357.931 849.203,378.587 873.823,378.75 C898.232,378.912 919.134,358.58 919.157,334.064 L919.157,334.064 Z"
         id="path9"
         style="fill:#999999" />
      <path
         d="M438.12,544.589 C454.566,528.155 471.012,511.723 487.458,495.29 C526.593,456.187 565.727,417.084 604.861,377.98 C651.381,331.499 697.899,285.017 744.419,238.535 C783.018,199.967 821.616,161.399 860.216,122.831 C875.613,107.445 891.012,92.06 906.409,76.674 C923.733,59.363 923.44,30.18 906.068,13.025 C888.555,-4.267 859.777,-3.978 842.419,13.366 C825.973,29.799 809.527,46.231 793.081,62.664 C753.946,101.768 714.812,140.871 675.678,179.974 C629.158,226.455 582.64,272.937 536.12,319.419 C497.521,357.987 458.922,396.555 420.324,435.123 C404.926,450.509 389.528,465.894 374.13,481.279 C356.806,498.59 357.099,527.773 374.471,544.928 C391.982,562.222 420.761,561.933 438.12,544.589 L438.12,544.589 Z"
         id="path11"
         style="fill:#999999" />
    </g>
  </g>
</svg>
